<?xml version="1.0" standalone="no"?>
<!DOCTYPE svg PUBLIC "-//W3C//DTD SVG 20010904//EN"
 "http://www.w3.org/TR/2001/REC-SVG-20010904/DTD/svg10.dtd">
<svg version="1.0" xmlns="http://www.w3.org/2000/svg"
 width="848.000000pt" height="848.000000pt" viewBox="0 0 848.000000 848.000000"
 preserveAspectRatio="xMidYMid meet">
<metadata>
Created by potrace 1.11, written by Peter Selinger 2001-2013
</metadata>
<g transform="translate(0.000000,848.000000) scale(0.100000,-0.100000)"
fill="#000000" stroke="none">
<path d="M3016 7732 c-104 -57 -132 -78 -204 -150 -86 -85 -122 -185 -119
-322 2 -59 8 -87 27 -125 14 -26 31 -50 37 -52 21 -7 130 180 196 337 4 8 4 0
1 -19 -12 -65 -83 -263 -108 -302 -34 -51 -33 -59 12 -59 104 1 235 127 281
272 24 74 15 227 -18 318 -14 38 -22 65 -21 68 1 3 -30 62 -33 62 -1 -1 -24
-13 -51 -28z"/>
<path d="M3887 7667 c-26 -54 -93 -260 -101 -311 -3 -16 -10 -53 -16 -83 -6
-29 -9 -57 -6 -62 4 -5 3 -12 -2 -15 -8 -5 -7 -186 1 -236 13 -73 79 -220 139
-309 40 -58 174 -191 193 -191 8 0 15 -4 15 -9 0 -5 8 -11 18 -14 9 -3 36 -13
59 -21 24 -9 59 -18 79 -20 l35 -5 -6 67 c-4 37 -11 83 -15 102 -5 19 -11 53
-14 75 -2 22 -10 63 -16 90 -7 28 -13 59 -16 70 -10 50 -76 279 -99 340 -13
38 -23 70 -22 72 2 1 15 -23 30 -55 14 -31 40 -88 58 -127 17 -38 32 -76 32
-82 0 -7 4 -13 8 -13 3 0 9 -8 12 -17 3 -10 25 -70 49 -133 53 -136 84 -259
87 -337 1 -34 23 -28 79 22 43 39 101 129 108 170 1 5 8 37 16 70 38 168 -12
417 -115 573 -94 139 -272 286 -484 398 l-82 43 -24 -52z"/>
<path d="M4880 7622 c-141 -148 -191 -255 -186 -396 3 -93 32 -182 74 -236 31
-38 103 -84 114 -72 3 4 3 25 -1 47 -7 39 -5 186 3 235 2 14 5 40 5 58 2 55
16 35 19 -25 3 -81 10 -164 16 -204 3 -19 8 -47 11 -63 2 -16 8 -33 12 -37 11
-11 86 49 109 86 36 59 43 75 59 130 31 108 19 208 -37 320 -36 72 -129 205
-143 205 -5 0 -30 -22 -55 -48z m28 -297 c1 -14 -2 -25 -6 -25 -7 0 -8 31 -3
48 3 8 7 -2 9 -23z"/>
<path d="M5489 7577 c-87 -88 -162 -193 -197 -280 -22 -52 -26 -78 -26 -162
-1 -112 13 -173 57 -258 31 -60 90 -121 110 -114 10 3 49 111 61 170 32 154
44 225 45 275 1 12 4 22 9 22 13 0 0 -321 -17 -390 -5 -19 -13 -47 -19 -62
-13 -31 -4 -41 31 -34 95 17 188 128 228 271 49 180 18 320 -116 520 -88 131
-80 129 -166 42z"/>
<path d="M1899 7475 c-1 -8 -2 -18 -4 -22 -14 -53 -23 -99 -31 -168 -8 -68
-10 -269 -3 -295 4 -14 15 -50 23 -80 23 -81 82 -174 162 -255 64 -66 89 -85
149 -114 63 -30 135 -46 170 -37 23 6 23 7 8 53 -8 27 -16 55 -18 63 -2 8 -14
42 -26 75 -13 33 -24 62 -24 65 -3 9 -22 53 -51 115 -15 33 -28 62 -28 65 -1
3 -8 16 -16 30 -33 60 -57 110 -51 110 6 0 164 -239 193 -293 47 -88 89 -178
94 -206 10 -48 24 -48 63 -4 52 58 71 125 67 237 -2 50 -6 98 -8 106 -3 8 -10
35 -17 60 -63 220 -234 374 -534 479 -100 35 -116 37 -118 16z m250 -379 c-3
-3 -11 5 -18 17 -13 21 -12 21 5 5 10 -10 16 -20 13 -22z"/>
<path d="M6753 7225 c-29 -7 -53 -11 -53 -9 0 9 -102 -38 -127 -58 -61 -50
-125 -126 -149 -177 -27 -56 -40 -156 -23 -167 5 -3 7 -9 5 -13 -3 -4 -1 -13
3 -20 6 -9 25 4 67 46 32 32 73 68 89 80 127 92 185 131 185 125 0 -4 -19 -23
-42 -42 -91 -76 -238 -234 -238 -257 0 -13 42 -25 94 -28 49 -3 109 10 161 34
47 22 165 107 165 119 0 5 9 19 19 31 22 25 76 150 86 196 3 17 9 44 12 60 4
17 7 43 7 60 l1 29 -105 1 c-58 1 -129 -4 -157 -10z"/>
<path d="M3320 7177 c-39 -23 -176 -113 -194 -127 -111 -89 -210 -175 -261
-227 -79 -79 -186 -218 -211 -273 -13 -28 -41 -95 -52 -125 -18 -46 -42 -157
-36 -167 3 -4 2 -8 -3 -8 -15 0 -22 -253 -9 -350 19 -149 77 -277 162 -365 45
-47 138 -105 149 -93 1 1 5 53 8 113 4 61 13 139 22 175 9 36 18 73 20 84 8
37 88 294 132 421 24 72 52 151 60 178 22 66 34 59 16 -10 -8 -32 -17 -66 -19
-76 -2 -10 -5 -26 -8 -35 -3 -9 -7 -34 -10 -54 -3 -21 -10 -57 -16 -81 -5 -24
-12 -63 -15 -86 -3 -24 -7 -46 -9 -50 -2 -3 -6 -30 -10 -59 -3 -28 -8 -67 -11
-85 -25 -186 -38 -438 -22 -448 12 -8 90 12 142 36 206 95 407 377 477 665 27
115 26 280 -3 420 -13 66 -50 202 -60 225 -5 11 -22 57 -38 102 -17 45 -34 90
-39 100 -6 10 -32 63 -60 118 -27 54 -53 100 -58 101 -5 1 -25 -7 -44 -19z
m-179 -694 c-12 -20 -14 -14 -5 12 4 9 9 14 11 11 3 -2 0 -13 -6 -23z"/>
<path d="M6073 6980 c-157 -96 -296 -228 -359 -340 -79 -140 -100 -356 -48
-503 15 -43 73 -136 87 -138 4 -1 13 -2 20 -3 18 -2 127 219 186 376 28 75 51
141 51 147 0 15 20 64 25 60 3 -4 -14 -89 -40 -194 -3 -11 -7 -29 -10 -40 -13
-57 -47 -182 -52 -195 -3 -8 -7 -21 -9 -29 -1 -7 -19 -46 -38 -87 -20 -40 -36
-77 -36 -82 0 -16 104 -5 151 17 128 58 255 244 292 430 16 76 14 119 -8 256
-13 78 -112 332 -138 353 -8 7 -33 -3 -74 -28z"/>
<path d="M5155 6856 c-42 -24 -213 -156 -274 -212 -240 -221 -369 -402 -421
-594 -13 -45 -14 -52 -27 -145 -9 -62 -9 -276 -1 -330 31 -196 117 -366 224
-442 l30 -22 17 28 c67 113 220 516 273 715 9 34 18 68 21 76 9 22 10 26 32
123 18 83 38 135 26 71 -5 -29 -34 -228 -40 -274 -4 -32 -12 -86 -20 -130 -3
-19 -8 -46 -10 -60 -2 -14 -7 -45 -11 -70 -4 -25 -7 -48 -6 -52 1 -5 -3 -8 -9
-8 -5 0 -8 -4 -4 -10 12 -19 -54 -251 -108 -377 l-35 -83 26 -1 c15 -1 31 -1
35 0 4 1 23 3 42 6 100 12 209 71 299 161 88 88 189 258 232 387 9 28 21 57
25 63 5 6 7 13 4 15 -2 3 0 22 6 43 6 21 13 48 16 60 13 45 11 253 -3 324 -33
172 -95 346 -190 527 -70 134 -79 150 -86 153 -5 2 -8 8 -8 14 0 5 -8 20 -18
32 -14 19 -21 21 -37 12z"/>
<path d="M6977 6678 c-7 -3 -25 -9 -42 -12 -87 -16 -265 -81 -265 -97 0 -5 -7
-9 -15 -9 -23 0 -128 -110 -162 -170 -56 -100 -85 -219 -69 -285 2 -11 5 -27
5 -36 1 -23 29 -56 38 -44 5 6 26 23 48 40 44 32 228 214 289 285 52 61 24 14
-75 -125 -81 -114 -140 -181 -197 -225 -17 -14 -32 -28 -32 -31 0 -17 71 -36
126 -33 156 6 343 160 402 329 27 76 34 132 37 274 3 146 2 150 -41 148 -19
-1 -40 -5 -47 -9z"/>
<path d="M1378 6578 c-7 -18 -2 -233 7 -298 17 -127 21 -156 35 -215 23 -104
76 -231 124 -299 30 -43 143 -156 191 -192 22 -16 42 -31 45 -34 24 -24 165
-88 232 -104 104 -26 243 -21 254 9 5 12 -41 104 -78 157 -10 14 -18 28 -18
31 0 6 -100 160 -109 167 -3 3 -12 17 -20 33 -8 15 -18 27 -23 27 -4 0 -8 4
-8 10 0 10 -20 37 -52 72 -10 10 -18 21 -18 26 0 4 -16 24 -35 45 -19 21 -35
40 -35 43 0 3 -6 11 -12 18 -13 13 -54 61 -92 106 -28 34 75 -63 193 -182 90
-91 183 -191 230 -248 11 -14 26 -31 32 -38 28 -33 108 -155 119 -182 14 -35
20 -36 40 -12 35 41 52 77 64 135 31 150 -15 331 -129 507 -37 57 -55 80 -93
125 -17 19 -88 80 -117 101 -63 44 -256 125 -335 140 -14 3 -41 9 -60 14 -19
5 -48 12 -65 14 -16 3 -41 8 -54 11 -13 2 -49 7 -80 10 -31 3 -72 8 -92 11
-24 3 -38 0 -41 -8z"/>
<path d="M686 6532 c-17 -4 -18 -11 -12 -87 3 -46 10 -94 15 -106 5 -13 9 -27
9 -32 1 -20 15 -73 21 -82 4 -5 14 -26 22 -45 32 -81 132 -168 239 -208 54
-19 152 -24 179 -8 9 6 -38 90 -76 136 -24 29 -118 144 -147 179 -26 32 -24
31 19 -9 27 -25 58 -53 69 -62 70 -59 135 -129 165 -179 l18 -30 21 33 c60 94
-24 310 -155 401 -65 45 -179 80 -298 93 -27 3 -54 6 -60 8 -5 1 -18 0 -29 -2z"/>
<path d="M7525 6255 c-5 -2 -55 -18 -110 -35 -200 -64 -339 -150 -436 -267
-37 -45 -113 -205 -124 -263 -7 -35 -18 -117 -17 -123 1 -4 4 -33 7 -63 6 -70
55 -174 82 -174 7 0 13 -5 13 -11 0 -19 18 1 25 28 13 54 57 136 133 251 42
64 81 122 87 128 5 6 28 36 50 67 61 86 69 76 13 -16 -78 -128 -210 -417 -220
-482 -3 -19 2 -20 69 -19 95 2 193 48 288 136 125 116 195 241 213 383 13 100
5 300 -16 420 -7 39 -25 52 -57 40z"/>
<path d="M3771 6136 c-8 -10 -10 -37 -5 -88 16 -160 7 -378 -22 -523 -8 -44
-17 -91 -20 -105 -2 -14 -6 -35 -9 -47 -3 -13 -6 -26 -6 -30 -1 -5 -8 -30 -16
-57 -8 -27 -16 -57 -18 -65 -2 -9 -9 -36 -16 -61 -7 -25 -14 -49 -15 -55 -1
-5 -28 -91 -59 -190 -31 -99 -58 -187 -60 -195 -2 -8 -4 -16 -5 -17 -2 -2 -3
-6 -4 -10 -2 -5 -8 -28 -16 -53 -7 -25 -13 -51 -11 -57 4 -27 -21 -10 -83 55
-35 37 -97 101 -136 142 -81 84 -160 183 -160 199 0 6 -4 11 -8 11 -10 0 -66
112 -84 168 -23 74 -77 63 -79 -17 -2 -101 6 -237 16 -286 48 -224 108 -361
250 -564 121 -174 190 -290 200 -336 1 -5 6 -53 10 -105 9 -121 18 -201 31
-262 3 -16 2 -28 -3 -28 -4 0 -31 22 -59 48 -154 142 -350 254 -504 288 -19 4
-42 9 -50 11 -103 22 -353 21 -390 -2 -6 -4 -22 -8 -35 -11 -60 -11 -120 -40
-123 -59 -4 -33 10 -42 75 -48 107 -10 208 -50 393 -155 42 -24 189 -121 200
-132 3 -3 34 -29 70 -59 153 -128 286 -279 433 -493 l66 -97 -142 2 c-146 1
-213 -4 -357 -29 -114 -19 -333 -25 -417 -12 -78 13 -198 59 -268 104 -79 49
-117 83 -193 171 -54 63 -74 71 -109 41 -38 -31 32 -196 133 -310 102 -116
317 -222 509 -252 59 -9 98 -16 115 -20 8 -1 38 -7 65 -11 28 -5 52 -10 55
-10 3 -1 23 -5 45 -9 50 -9 87 -17 250 -57 72 -17 137 -32 145 -34 8 -2 15 -4
15 -5 0 -1 9 -3 20 -4 43 -5 125 -30 125 -38 0 -4 8 -8 18 -8 9 0 34 -11 54
-25 20 -14 41 -25 45 -25 10 0 102 -88 148 -140 26 -30 41 -55 45 -75 1 -3 6
-19 11 -37 9 -31 16 -66 25 -128 4 -31 4 -223 -1 -270 -10 -105 -26 -192 -60
-340 -16 -70 -59 -233 -71 -269 -8 -24 -12 -46 -10 -49 3 -2 1 -12 -3 -21 -13
-24 -23 -110 -16 -132 10 -29 74 -66 178 -102 l92 -31 280 -3 c275 -3 282 -3
375 23 113 31 146 47 155 74 6 20 -1 176 -10 189 -2 4 -6 25 -9 46 -3 22 -8
51 -11 65 -10 40 -17 73 -20 95 -1 11 -10 50 -19 88 -8 37 -18 82 -21 100 -4
17 -11 52 -17 77 -16 66 -18 364 -2 423 7 26 12 50 12 52 0 32 19 98 39 134
72 130 89 160 122 206 20 28 67 86 105 130 38 44 72 83 75 87 3 3 26 9 51 13
58 7 252 55 265 65 6 4 42 18 80 30 39 12 99 36 134 52 51 22 74 27 110 24
169 -19 451 -26 551 -15 125 15 290 58 377 100 89 44 207 151 209 191 2 33
-40 70 -73 63 -79 -15 -633 1 -650 19 -3 3 58 98 85 131 4 6 33 62 64 125 72
146 164 421 183 545 5 31 6 38 23 115 5 25 10 52 10 60 0 8 7 48 15 88 15 78
7 108 -27 101 -20 -4 -39 -39 -194 -354 -54 -110 -119 -232 -143 -270 -63
-100 -132 -195 -141 -195 -4 0 -8 -5 -8 -10 0 -10 -104 -116 -146 -150 -36
-29 -124 -80 -138 -80 -8 0 -16 -4 -18 -8 -3 -7 -100 -52 -112 -52 -4 0 5 18
19 40 77 122 192 381 210 471 2 8 10 39 19 67 8 29 15 54 16 57 0 3 0 6 1 8
43 141 58 587 25 767 -2 14 -7 48 -10 75 -3 28 -8 61 -10 75 -11 62 -27 168
-31 195 -2 17 -6 44 -9 60 -2 17 -7 53 -11 80 -3 28 -8 66 -10 85 -8 52 -16
197 -16 260 1 30 1 102 1 160 -1 149 1 194 5 199 7 6 -36 41 -51 41 -15 0 -64
-50 -64 -65 0 -5 -13 -42 -29 -82 -25 -61 -59 -205 -59 -253 0 -8 -3 -24 -5
-36 -5 -19 -10 -83 -22 -264 -3 -36 -7 -144 -10 -240 -8 -239 -13 -341 -21
-435 -3 -44 -7 -96 -9 -115 -2 -36 -14 -130 -21 -165 -2 -11 -7 -33 -10 -50
-2 -16 -10 -48 -16 -70 -5 -22 -11 -44 -13 -50 -1 -5 -5 -17 -8 -25 -3 -8 -11
-33 -17 -55 -23 -76 -111 -242 -166 -311 -71 -89 -157 -185 -267 -298 -352
-361 -413 -427 -502 -540 -16 -22 -36 -45 -42 -52 -7 -7 -13 -17 -13 -23 0 -6
-3 -11 -7 -11 -5 0 -21 -20 -36 -45 -16 -25 -32 -45 -37 -45 -4 0 -11 19 -15
43 -11 57 -7 47 -60 187 -26 69 -53 145 -61 170 -8 25 -19 54 -24 65 -6 11
-12 29 -13 40 -2 11 -7 27 -10 35 -29 74 -50 207 -52 325 -2 113 1 144 26 240
32 127 111 320 169 415 33 53 176 297 179 305 2 6 7 12 11 15 14 10 135 218
165 285 18 38 45 109 60 157 24 72 27 89 16 102 -8 9 -17 16 -21 16 -13 0
-282 -276 -399 -410 -41 -47 -77 -87 -80 -90 -41 -35 -221 -272 -258 -340 -11
-19 -32 -57 -47 -85 -16 -27 -30 -52 -33 -55 -6 -6 4 271 11 310 3 14 7 52 11
85 11 110 16 150 20 173 2 12 7 62 10 110 4 48 9 89 10 92 2 3 6 41 10 85 4
44 9 94 11 110 24 244 24 696 -1 768 -2 6 -7 30 -9 52 -7 54 -14 89 -33 160
-8 33 -17 67 -18 75 -2 8 -4 15 -5 15 -1 0 -3 7 -5 15 -2 8 -13 42 -25 75 -36
99 -45 110 -69 81z"/>
<path d="M6152 5807 c-90 -136 -168 -294 -211 -427 -65 -199 -59 -369 20 -588
20 -55 67 -153 78 -162 7 -6 28 -38 37 -58 15 -30 122 -124 175 -152 73 -39
99 -39 100 -2 1 15 4 47 6 72 8 71 8 486 -1 580 -12 138 -17 184 -22 203 -3 9
-1 17 4 17 5 0 9 -6 9 -12 0 -7 3 -24 6 -38 3 -14 8 -43 12 -65 4 -22 10 -49
12 -60 5 -21 14 -65 32 -155 20 -106 24 -125 27 -150 1 -14 3 -25 4 -25 1 0 4
-11 5 -25 2 -14 8 -51 13 -82 9 -58 8 -224 -2 -264 -9 -35 7 -36 71 -4 68 34
142 108 170 170 4 8 9 17 13 20 11 8 49 121 66 195 21 90 24 278 7 375 -35
189 -188 412 -428 626 -98 87 -119 104 -131 104 -5 0 -38 -42 -72 -93z"/>
<path d="M809 5756 c-2 -2 -24 -6 -49 -9 -25 -4 -60 -11 -77 -16 -18 -5 -33
-8 -33 -6 0 2 -30 -7 -67 -21 -38 -13 -68 -24 -68 -23 0 2 -49 -18 -104 -42
l-63 -29 32 -57 c99 -177 233 -340 338 -410 31 -21 59 -38 62 -39 3 0 16 -5
30 -11 14 -6 27 -11 30 -11 3 0 19 -6 35 -12 57 -22 130 -33 225 -35 140 -2
235 27 309 95 l34 31 -54 34 c-30 19 -60 39 -66 45 -7 6 -13 8 -13 5 0 -3 -17
5 -37 18 -58 36 -237 120 -345 162 -54 21 -97 40 -95 41 3 3 84 -15 107 -24 8
-3 23 -6 32 -7 9 -1 30 -7 45 -14 15 -6 37 -12 48 -14 11 -2 27 -7 35 -10 8
-3 38 -12 65 -20 84 -24 186 -68 252 -108 35 -21 65 -34 67 -31 2 4 3 37 2 72
-3 98 -35 157 -134 254 -52 52 -178 134 -215 142 -10 2 -24 7 -31 12 -26 20
-107 36 -197 38 -53 2 -98 2 -100 0z"/>
<path d="M1679 5226 c-1 -11 0 -25 1 -31 3 -14 7 -43 14 -96 11 -75 16 -100
41 -194 60 -224 130 -362 237 -466 78 -77 227 -169 323 -199 22 -7 46 -17 53
-23 6 -5 12 -7 12 -4 0 3 24 0 53 -7 120 -28 252 -6 335 57 35 26 33 30 -23
57 -53 25 -148 91 -230 160 -78 66 -405 382 -355 344 14 -10 27 -21 30 -24 3
-3 32 -25 65 -50 33 -25 62 -48 65 -51 3 -3 48 -34 100 -70 52 -35 97 -66 100
-69 21 -22 318 -185 325 -178 19 21 26 165 11 233 -29 133 -156 329 -283 435
-93 79 -270 154 -413 175 -23 3 -58 9 -78 11 -20 3 -115 7 -209 9 -171 3 -173
3 -174 -19z"/>
<path d="M7608 5165 c-2 -2 -30 -6 -63 -9 -178 -19 -279 -70 -420 -211 -65
-66 -93 -102 -113 -147 -9 -21 -20 -38 -24 -38 -5 0 -8 -8 -8 -18 0 -10 -5
-23 -12 -30 -7 -7 -9 -12 -6 -12 3 0 0 -24 -6 -52 -15 -73 -10 -128 13 -128
10 0 21 3 25 7 3 4 12 8 19 9 46 7 333 142 465 221 41 24 72 39 70 34 -4 -11
-275 -214 -329 -246 -24 -14 -76 -42 -116 -61 -61 -30 -80 -38 -112 -43 -3 -1
7 -14 22 -29 77 -80 231 -108 392 -71 75 17 243 101 301 151 116 98 222 288
284 508 11 41 25 87 29 102 9 26 7 28 -27 37 -21 5 -66 13 -102 17 -63 6 -277
13 -282 9z m-18 -349 c0 -2 -7 -7 -16 -10 -8 -3 -12 -2 -9 4 6 10 25 14 25 6z"/>
<path d="M1007 4884 c-38 -7 -84 -18 -102 -24 -17 -6 -41 -12 -53 -15 -34 -6
-262 -107 -262 -115 0 -5 -7 -10 -15 -12 -11 -2 5 -32 56 -108 39 -58 75 -106
80 -108 5 -2 9 -7 9 -12 0 -9 117 -129 166 -170 63 -53 159 -100 241 -120 76
-17 234 -19 310 -3 116 24 256 107 235 139 -10 15 -172 96 -277 138 -49 20
-99 41 -110 46 -11 5 -64 23 -119 41 -105 35 -117 50 -19 25 32 -8 72 -17 88
-20 17 -3 41 -8 55 -11 14 -3 36 -8 50 -11 126 -26 240 -63 317 -105 51 -28
52 -28 58 -8 8 25 -2 100 -18 137 -19 43 -48 84 -92 128 -43 43 -165 130 -165
117 0 -4 -4 -3 -8 2 -8 12 -66 37 -142 61 -69 21 -195 25 -283 8z m53 -283 c0
-5 -9 -7 -20 -4 -11 3 -20 7 -20 9 0 2 9 4 20 4 11 0 20 -4 20 -9z"/>
<path d="M8080 4483 c-96 -16 -192 -65 -244 -125 -33 -37 -47 -77 -28 -79 4 0
30 -3 57 -6 28 -4 103 -7 167 -7 65 -1 118 -4 118 -8 0 -5 -2 -8 -4 -8 -2 0
-28 -5 -57 -11 -30 -6 -108 -12 -174 -14 -66 -2 -121 -4 -123 -4 -6 -2 30 -62
50 -84 24 -25 100 -62 152 -74 17 -4 72 -7 121 -8 83 0 96 3 160 34 39 19 72
37 75 40 3 3 21 18 40 33 88 67 90 70 90 137 l0 61 -53 34 c-122 78 -237 108
-347 89z m140 -217 c0 -2 -13 -6 -29 -8 -17 -2 -28 -1 -25 4 5 8 54 12 54 4z"/>
<path d="M455 4273 c-171 -32 -283 -128 -419 -362 -20 -35 -33 -67 -29 -71 14
-14 187 -68 253 -80 74 -13 181 -16 231 -5 65 14 177 79 244 142 38 36 84 103
90 132 2 13 7 31 10 42 8 24 1 25 -80 14 -27 -3 -65 -8 -84 -11 -18 -2 -36 -6
-40 -9 -4 -2 -23 -7 -42 -10 -55 -11 -158 -40 -199 -56 -15 -7 -21 -7 -15 -1
6 6 62 31 125 57 63 26 126 52 140 58 28 12 24 10 70 22 35 9 51 11 90 14 30
2 24 20 -20 62 -67 64 -190 88 -325 62z"/>
<path d="M7213 4120 c-29 -4 -65 -11 -80 -15 -16 -5 -33 -9 -40 -11 -64 -13
-253 -100 -253 -116 0 -4 -6 -8 -14 -8 -22 0 -123 -115 -145 -166 -11 -24 -23
-61 -27 -80 l-6 -35 38 5 c22 3 70 12 109 20 51 11 124 13 280 11 115 -2 224
-6 242 -9 17 -3 79 -8 136 -11 153 -9 184 -21 57 -23 -193 -2 -353 -16 -560
-48 -140 -22 -280 -56 -280 -68 0 -28 65 -118 117 -165 73 -66 214 -136 333
-166 54 -14 175 -28 245 -29 107 -2 217 21 327 68 21 9 41 16 45 17 5 0 15 7
23 14 8 7 17 13 20 12 3 0 38 19 79 43 129 75 371 267 371 294 0 12 -100 107
-190 180 -149 121 -307 214 -445 262 -68 23 -99 27 -205 30 -69 1 -149 -1
-177 -6z"/>
<path d="M1504 4023 c-44 -6 -118 -24 -165 -38 -87 -28 -251 -102 -257 -117
-2 -4 -9 -8 -14 -8 -13 0 -110 -72 -148 -109 -21 -21 -102 -118 -138 -166 -4
-5 -28 -46 -54 -90 -83 -144 -144 -289 -202 -480 -40 -130 -42 -141 -23 -143
31 -2 64 -9 72 -14 9 -5 42 -10 145 -23 14 -2 52 -7 85 -11 33 -4 137 -8 230
-8 246 1 395 31 543 111 289 155 519 463 524 702 2 98 0 103 -29 98 -35 -6
-223 -71 -255 -88 -12 -7 -24 -12 -25 -11 -3 1 -62 -22 -138 -56 -175 -77
-523 -261 -569 -301 -11 -9 -16 -10 -12 -4 4 7 53 45 109 85 56 40 107 76 112
81 68 54 328 223 475 307 45 26 144 70 203 89 37 13 67 26 67 30 0 4 -19 27
-42 50 -104 102 -292 146 -494 114z"/>
<path d="M7899 3186 c-2 -2 -17 -7 -34 -10 -50 -9 -75 -18 -75 -27 0 -5 -6 -9
-14 -9 -7 0 -21 -11 -29 -23 -15 -24 -15 -24 62 -55 74 -31 172 -88 179 -104
2 -5 10 -8 17 -8 7 0 15 -3 17 -7 2 -5 36 -30 76 -58 93 -62 101 -75 20 -29
-77 44 -234 119 -268 129 -14 4 -29 11 -35 15 -16 11 -105 33 -111 27 -8 -8
-8 -58 1 -97 14 -67 58 -136 134 -211 90 -89 163 -128 267 -144 98 -16 288
-10 357 11 28 9 23 118 -10 201 -15 38 -29 70 -32 73 -3 3 -13 21 -22 40 -22
46 -86 131 -124 162 -50 41 -176 102 -235 113 -48 9 -136 16 -141 11z"/>
<path d="M7048 3043 c-44 -18 -46 -25 -15 -46 48 -33 123 -114 172 -187 17
-25 35 -50 40 -56 8 -10 37 -53 97 -149 7 -11 26 -39 41 -62 37 -57 21 -54
-23 4 -19 26 -40 51 -45 57 -6 6 -23 27 -39 46 -95 117 -307 316 -329 307 -19
-7 -43 -93 -46 -163 -7 -176 119 -424 264 -521 36 -24 162 -93 172 -94 5 -1
19 -6 33 -11 57 -22 218 -67 262 -73 45 -6 48 -5 55 22 16 62 7 442 -12 473
-3 6 -8 19 -10 30 -2 10 -14 41 -26 67 -12 26 -23 51 -23 55 -5 33 -197 228
-225 228 -6 0 -11 4 -11 8 0 10 -100 58 -112 55 -4 -2 -8 1 -8 5 0 10 0 10
-100 16 -54 3 -86 0 -112 -11z"/>
<path d="M1745 2763 c-66 -14 -174 -82 -230 -144 -192 -212 -234 -400 -164
-724 41 -187 77 -261 112 -226 6 6 16 11 23 11 18 0 195 102 268 154 56 40
150 127 186 172 117 146 159 445 85 605 -28 61 -47 89 -63 89 -9 0 -50 -51
-107 -135 -55 -81 -120 -193 -185 -320 -39 -77 -68 -131 -65 -120 14 45 37
111 42 125 3 8 7 20 8 25 13 52 139 350 155 365 3 3 11 17 19 33 8 15 18 27
23 27 4 0 8 7 8 15 0 8 5 15 10 15 16 0 11 27 -6 34 -17 7 -87 6 -119 -1z"/>
<path d="M872 2561 c-138 -48 -284 -203 -306 -326 -3 -14 -7 -34 -11 -45 -3
-10 -8 -45 -10 -77 -2 -32 -5 -60 -6 -63 -6 -18 3 -176 11 -184 5 -5 39 -3 87
8 295 62 421 158 499 378 29 82 21 234 -13 245 -19 7 -189 -147 -290 -260 -22
-26 -44 -47 -47 -47 -6 0 62 100 75 110 3 3 10 12 15 21 19 34 71 96 135 162
l66 68 -28 14 c-38 20 -113 18 -177 -4z"/>
<path d="M6506 2525 c-107 -57 -166 -179 -172 -356 -5 -124 16 -192 95 -314
25 -38 50 -75 56 -82 5 -6 41 -45 79 -86 l70 -75 29 37 c48 58 127 182 148
231 11 25 24 54 29 65 17 37 27 89 29 152 3 66 -16 180 -32 201 -5 6 -7 12 -3
12 12 0 -52 114 -84 152 -32 38 -88 78 -108 78 -5 0 -13 -21 -17 -47 -5 -27
-10 -55 -11 -63 -8 -38 -17 -203 -16 -277 1 -46 -2 -83 -6 -83 -4 0 -8 8 -9
18 -1 9 -4 33 -7 52 -18 132 -24 287 -13 357 3 23 3 45 -2 47 -5 3 -30 -5 -55
-19z"/>
</g>
</svg>
